<?xml version="1.0" standalone="no"?>
<!DOCTYPE svg PUBLIC "-//W3C//DTD SVG 20010904//EN"
 "http://www.w3.org/TR/2001/REC-SVG-20010904/DTD/svg10.dtd">
<svg version="1.0" xmlns="http://www.w3.org/2000/svg"
 width="260.000000pt" height="260.000000pt" viewBox="0 0 260.000000 260.000000"
 preserveAspectRatio="xMidYMid meet">
<metadata>
Created by potrace 1.14, written by Peter Selinger 2001-2017
</metadata>
<g transform="translate(0.000000,260.000000) scale(0.100000,-0.100000)"
fill="#000000" stroke="none">
<path d="M0 1085 l0 -1085 1300 0 1300 0 0 1085 0 1085 -1300 0 -1300 0 0
-1085z m1335 231 l250 -473 3 473 2 474 80 0 80 0 0 -595 0 -595 -102 0 -103
0 -275 523 -275 522 -3 -523 -2 -522 -75 0 -75 0 0 595 0 595 123 0 123 0 249
-474z"/>
</g>
</svg>
